<svg width="24" height="24" viewBox="0 0 24 24" fill="none" xmlns="http://www.w3.org/2000/svg">
<g clip-path="url(#clip0_89_651)">
<mask id="mask0_89_651" style="mask-type:luminance" maskUnits="userSpaceOnUse" x="0" y="0" width="24" height="24">
<path d="M22.9999 23.5V0.5H1V23.5H22.9999Z" fill="white" stroke="white"/>
</mask>
<g mask="url(#mask0_89_651)">
<path d="M15.9998 5L12.7871 1.35141C12.3403 0.882864 11.6592 0.882864 11.2124 1.35141L7.99976 5" stroke="white" stroke-miterlimit="10" stroke-linecap="round" stroke-linejoin="round"/>
<path d="M21.5428 10.26L20.1177 11.6826" stroke="white" stroke-miterlimit="10" stroke-linecap="round" stroke-linejoin="round"/>
<path d="M13.7173 18.0709L21.8784 22.5557" stroke="white" stroke-miterlimit="10" stroke-linecap="round" stroke-linejoin="round"/>
<path d="M3.88188 11.6826L2.45679 10.26" stroke="white" stroke-miterlimit="10" stroke-linecap="round" stroke-linejoin="round"/>
<path d="M10.2819 18.0709L2.12085 22.5557" stroke="white" stroke-miterlimit="10" stroke-linecap="round" stroke-linejoin="round"/>
<path d="M17.136 23.6641H20.7711C21.383 23.6641 21.879 23.168 21.879 22.5562V11.062C21.879 10.9128 21.8493 10.765 21.7915 10.6274C21.7337 10.4898 21.6491 10.3651 21.5426 10.2605L20.1175 8.86186" stroke="white" stroke-miterlimit="10" stroke-linecap="round" stroke-linejoin="round"/>
<path d="M2.12085 16.375V22.5562C2.12085 23.168 2.61688 23.6641 3.22875 23.6641H15.6674" stroke="white" stroke-miterlimit="10" stroke-linecap="round" stroke-linejoin="round"/>
<path d="M3.88232 8.86145L2.45722 10.2601C2.35072 10.3647 2.26612 10.4894 2.20836 10.627C2.15061 10.7646 2.12086 10.9124 2.12085 11.0616V14.9062" stroke="white" stroke-miterlimit="10" stroke-linecap="round" stroke-linejoin="round"/>
<path d="M20.1171 6.52631V5.7272C20.1171 5.10697 19.6143 4.60416 18.994 4.60416H5.00512C4.38489 4.60416 3.88208 5.10697 3.88208 5.7272V11.683L10.2817 18.0713L11.466 17.4205C11.6295 17.3306 11.813 17.2835 11.9996 17.2835C12.1861 17.2835 12.3697 17.3306 12.5332 17.4205L13.7174 18.0713L20.1171 11.683V7.96044" stroke="white" stroke-miterlimit="10" stroke-linecap="round" stroke-linejoin="round"/>
<path d="M13.0597 10.2196C13.0597 11.1204 12.5069 11.7949 11.8451 11.7949C11.1832 11.7949 10.5979 11.1297 10.5979 10.229C10.5979 9.32813 11.2157 8.72798 11.8776 8.72798C12.5394 8.72798 13.0597 9.31879 13.0597 10.2196Z" stroke="white" stroke-miterlimit="10" stroke-linecap="round" stroke-linejoin="round"/>
<path d="M11.9356 13.3213C10.6192 13.2849 9.41891 12.3939 9.06245 11.0387C8.65106 9.47442 9.55084 7.84061 11.0921 7.35002C12.7221 6.83109 14.4557 7.74816 14.9482 9.38008C15.1225 10.033 15.0208 10.6011 14.7899 11.1818C14.6983 11.412 14.3963 11.951 13.7245 11.951C13.3578 11.951 13.052 11.5995 13.0541 11.1947L13.0673 8.51201" stroke="white" stroke-miterlimit="10" stroke-linecap="round" stroke-linejoin="round"/>
<path d="M14.9481 9.37996C15.1224 10.0329 15.0207 10.601 14.7898 11.1816" stroke="white" stroke-miterlimit="10" stroke-linecap="round" stroke-linejoin="round"/>
</g>
</g>
<defs>
<clipPath id="clip0_89_651">
<rect width="24" height="24" fill="white"/>
</clipPath>
</defs>
</svg>
