<svg width="103" height="37" viewBox="0 0 103 37" fill="none" xmlns="http://www.w3.org/2000/svg">
<rect y="9.2771" width="101" height="27" rx="13.5" transform="rotate(-5 0 9.2771)" fill="#F49C89"/>
<path d="M21.049 19.4813L19.9962 19.5734C19.9075 19.2761 19.7752 19.0196 19.5995 18.804C19.4266 18.5881 19.223 18.412 18.9887 18.2756C18.7569 18.1362 18.5045 18.0385 18.2315 17.9826C17.9586 17.9266 17.6778 17.9112 17.3891 17.9365C16.8627 17.9825 16.3975 18.1573 15.9934 18.4607C15.5922 18.7639 15.2882 19.1854 15.0817 19.7254C14.8779 20.2651 14.809 20.9113 14.8749 21.6641C14.9407 22.4169 15.1208 23.0414 15.4152 23.5375C15.7124 24.0334 16.0849 24.3958 16.5327 24.6247C16.9833 24.8533 17.4718 24.9446 17.9982 24.8985C18.2869 24.8733 18.5607 24.8094 18.8198 24.7069C19.0789 24.6044 19.3106 24.4657 19.5149 24.291C19.7218 24.1132 19.8916 23.903 20.0244 23.6604C20.1598 23.4147 20.2455 23.1392 20.2815 22.8337L21.3343 22.7416C21.2939 23.1929 21.1843 23.6031 21.0056 23.9724C20.8269 24.3416 20.5927 24.663 20.3029 24.9364C20.0129 25.2071 19.6796 25.423 19.303 25.5843C18.9292 25.7453 18.523 25.845 18.0844 25.8834C17.3429 25.9483 16.6676 25.8248 16.0586 25.5131C15.4495 25.2014 14.9503 24.726 14.5607 24.0871C14.1711 23.4482 13.9363 22.6702 13.856 21.7533C13.7758 20.8363 13.872 20.0294 14.1447 19.3325C14.4174 18.6357 14.8266 18.0808 15.3722 17.6681C15.9179 17.2553 16.5614 17.0165 17.3029 16.9516C17.7416 16.9132 18.1589 16.9409 18.555 17.0346C18.9538 17.128 19.3197 17.2842 19.6526 17.5032C19.9852 17.7193 20.2715 17.9937 20.5117 18.3263C20.7515 18.6561 20.9307 19.0411 21.049 19.4813ZM21.8797 17.6121L21.798 16.6781L28.3186 16.1076L28.4003 17.0416L25.6664 17.2808L26.3453 25.0409L25.2925 25.133L24.6136 17.3729L21.8797 17.6121ZM37.0584 19.7233C37.1386 20.6403 37.0423 21.4472 36.7697 22.1441C36.497 22.8409 36.0878 23.3957 35.5422 23.8085C34.9965 24.2213 34.3529 24.4601 33.6115 24.525C32.87 24.5898 32.1947 24.4664 31.5857 24.1547C30.9766 23.8429 30.4773 23.3676 30.0878 22.7286C29.6982 22.0897 29.4633 21.3118 29.3831 20.3948C29.3029 19.4779 29.3991 18.671 29.6718 17.9741C29.9445 17.2772 30.3537 16.7224 30.8993 16.3096C31.445 15.8969 32.0885 15.658 32.83 15.5932C33.5715 15.5283 34.2468 15.6517 34.8558 15.9635C35.4648 16.2752 35.9641 16.7506 36.3537 17.3895C36.7432 18.0284 36.9781 18.8064 37.0584 19.7233ZM36.0395 19.8125C35.9737 19.0597 35.7921 18.4353 35.4949 17.9394C35.2006 17.4433 34.8281 17.0809 34.3775 16.8523C33.9297 16.6234 33.4426 16.532 32.9162 16.578C32.3898 16.6241 31.9246 16.7988 31.5205 17.1023C31.1192 17.4054 30.8153 17.827 30.6088 18.3669C30.405 18.9066 30.3361 19.5529 30.402 20.3057C30.4678 21.0585 30.6479 21.6829 30.9423 22.1791C31.2395 22.6749 31.612 23.0373 32.0598 23.2662C32.5104 23.4949 32.9989 23.5861 33.5253 23.5401C34.0517 23.494 34.5155 23.3194 34.9167 23.0163C35.3208 22.7128 35.6247 22.2913 35.8285 21.7516C36.035 21.2116 36.1054 20.5653 36.0395 19.8125ZM38.2092 15.2423L39.245 15.1517L39.8437 21.9949L39.9286 21.9875L44.0845 14.7283L45.1033 14.6392L45.8639 23.3332L44.8111 23.4253L44.2139 16.5991L44.129 16.6066L39.9886 23.8473L38.9698 23.9364L38.2092 15.2423ZM46.9709 14.4758L48.2274 14.3658L51.8134 21.3241L51.9153 21.3152L54.2386 13.8399L55.4951 13.73L56.2558 22.4241L55.2709 22.5102L54.693 15.9048L54.6081 15.9122L52.4691 22.7554L51.5182 22.8386L48.2234 16.4708L48.1385 16.4782L48.7164 23.0837L47.7315 23.1698L46.9709 14.4758ZM65.0829 17.2715C65.1631 18.1884 65.0669 18.9954 64.7942 19.6922C64.5215 20.3891 64.1123 20.9439 63.5667 21.3567C63.021 21.7694 62.3775 22.0083 61.636 22.0731C60.8945 22.138 60.2192 22.0146 59.6102 21.7028C59.0012 21.3911 58.5019 20.9158 58.1123 20.2768C57.7227 19.6379 57.4879 18.8599 57.4076 17.943C57.3274 17.026 57.4236 16.2191 57.6963 15.5223C57.969 14.8254 58.3782 14.2706 58.9238 13.8578C59.4695 13.445 60.113 13.2062 60.8545 13.1413C61.596 13.0765 62.2713 13.1999 62.8803 13.5117C63.4893 13.8234 63.9886 14.2987 64.3782 14.9377C64.7678 15.5766 65.0026 16.3545 65.0829 17.2715ZM64.064 17.3606C63.9982 16.6078 63.8166 15.9835 63.5195 15.4876C63.2251 14.9915 62.8526 14.6291 62.402 14.4005C61.9542 14.1716 61.4671 14.0802 60.9407 14.1262C60.4143 14.1723 59.9491 14.347 59.545 14.6504C59.1438 14.9536 58.8399 15.3752 58.6333 15.9151C58.4295 16.4548 58.3606 17.101 58.4265 17.8539C58.4923 18.6067 58.6724 19.2311 58.9668 19.7272C59.264 20.2231 59.6365 20.5855 60.0843 20.8144C60.5349 21.043 61.0234 21.1343 61.5498 21.0883C62.0762 21.0422 62.54 20.8676 62.9413 20.5644C63.3453 20.261 63.6492 19.8395 63.853 19.2998C64.0595 18.7598 64.1299 18.1134 64.064 17.3606ZM73.4674 14.8953L72.4146 14.9874C72.3258 14.6901 72.1936 14.4336 72.0179 14.2179C71.845 14.0021 71.6414 13.826 71.407 13.6896C71.1752 13.5502 70.9229 13.4525 70.6499 13.3965C70.3769 13.3406 70.0961 13.3252 69.8075 13.3505C69.2811 13.3965 68.8158 13.5713 68.4118 13.8747C68.0105 14.1779 67.7066 14.5994 67.5 15.1394C67.2963 15.6791 67.2274 16.3253 67.2932 17.0781C67.3591 17.8309 67.5392 18.4554 67.8336 18.9515C68.1308 19.4474 68.5032 19.8098 68.951 20.0386C69.4017 20.2673 69.8902 20.3586 70.4166 20.3125C70.7052 20.2873 70.9791 20.2234 71.2382 20.1209C71.4973 20.0183 71.729 19.8797 71.9333 19.705C72.1402 19.5272 72.31 19.317 72.4428 19.0744C72.5781 18.8287 72.6638 18.5531 72.6998 18.2477L73.7526 18.1556C73.7123 18.6069 73.6027 19.0171 73.424 19.3864C73.2453 19.7556 73.011 20.077 72.7212 20.3504C72.4312 20.6211 72.0979 20.837 71.7213 20.9983C71.3476 21.1593 70.9414 21.259 70.5027 21.2974C69.7612 21.3623 69.086 21.2388 68.4769 20.9271C67.8679 20.6153 67.3686 20.14 66.9791 19.5011C66.5895 18.8621 66.3546 18.0842 66.2744 17.1672C66.1942 16.2503 66.2904 15.4434 66.5631 14.7465C66.8358 14.0496 67.2449 13.4948 67.7906 13.0821C68.3362 12.6693 68.9798 12.4305 69.7213 12.3656C70.16 12.3272 70.5773 12.3549 70.9733 12.4486C71.3722 12.542 71.7381 12.6982 72.0709 12.9172C72.4035 13.1333 72.6899 13.4077 72.93 13.7403C73.1699 14.0701 73.349 14.4551 73.4674 14.8953ZM74.2981 13.026L74.2164 12.0921L80.7369 11.5216L80.8186 12.4556L78.0848 12.6948L78.7637 20.4549L77.7109 20.547L77.032 12.7869L74.2981 13.026ZM83.2232 14.9829L85.7024 14.766C86.325 14.7115 86.8589 14.7675 87.3041 14.9338C87.7521 15.1 88.1026 15.3588 88.3558 15.7102C88.6118 16.0614 88.7619 16.4888 88.806 16.9926C88.85 17.4964 88.7771 17.9505 88.5872 18.3549C88.4001 18.7591 88.1011 19.089 87.6899 19.3446C87.2817 19.5999 86.7662 19.7548 86.1436 19.8092L82.8833 20.0945L82.1227 11.4004L83.1755 11.3083L83.8559 19.0854L86.0634 18.8923C86.4596 18.8576 86.788 18.749 87.0487 18.5665C87.3119 18.3809 87.5033 18.156 87.6227 17.8918C87.7448 17.6244 87.7934 17.3493 87.7687 17.0662C87.7323 16.6502 87.541 16.3062 87.195 16.0342C86.8487 15.7593 86.3784 15.6479 85.7841 15.6999L83.3049 15.9168L83.2232 14.9829Z" fill="white"/>
</svg>
